<mxfile host="65bd71144e">
    <diagram id="C5RBs43oDa-KdzZeNtuy" name="Page-1">
        <mxGraphModel dx="587" dy="532" grid="1" gridSize="10" guides="1" tooltips="1" connect="1" arrows="1" fold="1" page="1" pageScale="1" pageWidth="827" pageHeight="1169" math="0" shadow="0">
            <root>
                <mxCell id="WIyWlLk6GJQsqaUBKTNV-0"/>
                <mxCell id="WIyWlLk6GJQsqaUBKTNV-1" parent="WIyWlLk6GJQsqaUBKTNV-0"/>
                <UserObject label="%step%" step="upload pdf" placeholders="1" id="54">
                    <mxCell style="shape=rectangle;fillColor=#000000;strokeColor=#ffffff;" vertex="1" parent="WIyWlLk6GJQsqaUBKTNV-1">
                        <mxGeometry x="176.25" y="20" width="95" height="45" as="geometry"/>
                    </mxCell>
                </UserObject>
                <UserObject label="%step%" step="pdf exists?" placeholders="1" id="55">
                    <mxCell style="shape=rhombus;fillColor=#000000;strokeColor=#ffffff;" vertex="1" parent="WIyWlLk6GJQsqaUBKTNV-1">
                        <mxGeometry x="176.25" y="125" width="95" height="45" as="geometry"/>
                    </mxCell>
                </UserObject>
                <UserObject label="%step%" step="yes" placeholders="1" id="56">
                    <mxCell style="shape=ellipse;fillColor=#000000;strokeColor=#ffffff;" vertex="1" parent="WIyWlLk6GJQsqaUBKTNV-1">
                        <mxGeometry x="80" y="230" width="55" height="45" as="geometry"/>
                    </mxCell>
                </UserObject>
                <UserObject label="%step%" step="no" placeholders="1" id="57">
                    <mxCell style="shape=ellipse;fillColor=#000000;strokeColor=#ffffff;" vertex="1" parent="WIyWlLk6GJQsqaUBKTNV-1">
                        <mxGeometry x="312.5" y="230" width="55" height="45" as="geometry"/>
                    </mxCell>
                </UserObject>
                <UserObject label="%step%" step="get index from vectorstore" placeholders="1" id="58">
                    <mxCell style="shape=rectangle;fillColor=#000000;strokeColor=#ffffff;" vertex="1" parent="WIyWlLk6GJQsqaUBKTNV-1">
                        <mxGeometry x="20" y="335" width="175" height="45" as="geometry"/>
                    </mxCell>
                </UserObject>
                <UserObject label="%step%" step="pinecone" placeholders="1" id="59">
                    <mxCell style="shape=mxgraph.flowchart.database;fillColor=#000000;strokeColor=#ffffff;" vertex="1" parent="WIyWlLk6GJQsqaUBKTNV-1">
                        <mxGeometry x="235" y="335" width="85" height="45" as="geometry"/>
                    </mxCell>
                </UserObject>
                <UserObject label="%step%" step="postgres" placeholders="1" id="60">
                    <mxCell style="shape=mxgraph.flowchart.database;fillColor=#000000;strokeColor=#ffffff;" vertex="1" parent="WIyWlLk6GJQsqaUBKTNV-1">
                        <mxGeometry x="360" y="335" width="85" height="45" as="geometry"/>
                    </mxCell>
                </UserObject>
                <mxCell id="61" value="" style="curved=0;endArrow=blockThin;endFill=1;" edge="1" parent="WIyWlLk6GJQsqaUBKTNV-1" source="54" target="55">
                    <mxGeometry relative="1" as="geometry"/>
                </mxCell>
                <mxCell id="62" value="" style="curved=0;endArrow=blockThin;endFill=1;" edge="1" parent="WIyWlLk6GJQsqaUBKTNV-1" source="55" target="56">
                    <mxGeometry relative="1" as="geometry"/>
                </mxCell>
                <mxCell id="63" value="" style="curved=0;endArrow=blockThin;endFill=1;" edge="1" parent="WIyWlLk6GJQsqaUBKTNV-1" source="55" target="57">
                    <mxGeometry relative="1" as="geometry"/>
                </mxCell>
                <mxCell id="64" value="" style="curved=0;endArrow=blockThin;endFill=1;" edge="1" parent="WIyWlLk6GJQsqaUBKTNV-1" source="56" target="58">
                    <mxGeometry relative="1" as="geometry"/>
                </mxCell>
                <mxCell id="65" value="" style="curved=0;endArrow=blockThin;endFill=1;" edge="1" parent="WIyWlLk6GJQsqaUBKTNV-1" source="57" target="59">
                    <mxGeometry relative="1" as="geometry"/>
                </mxCell>
                <mxCell id="66" value="" style="curved=0;endArrow=blockThin;endFill=1;" edge="1" parent="WIyWlLk6GJQsqaUBKTNV-1" source="57" target="60">
                    <mxGeometry relative="1" as="geometry"/>
                </mxCell>
            </root>
        </mxGraphModel>
    </diagram>
</mxfile>